<?xml version="1.0" encoding="UTF-8"?> <svg xmlns="http://www.w3.org/2000/svg" viewBox="0 0 2164.15 369.03"><defs><style>.cls-1{fill:#0f2a4c;}.cls-2{fill:#58595b;}.cls-3{fill:#59585b;}</style></defs><title>GalaxE Solutions</title><g id="galaxe_solutions" data-name="galaxe solutions"><g id="galaxe_solutions_-_color" data-name="galaxe solutions - color"><path class="cls-1" d="M567.73,271.77V177.31c0-23.87-5.19-47.75-63.32-47.75s-67,19.73-67,29.58c0,7.79,2.07,17.65,16.08,17.65,6.23,0,11.94-6.23,11.94-15.06,0-13,15.68-27.19,39.45-24.9,27,2.59,32.69,24.39,32.69,46.71v11.81a370.75,370.75,0,0,0-51.39,17.25c-27.23,11.67-54,27-54,57.09,0,21.79,19.2,34.25,42,34.25,20.37,0,43.6-12.39,65.69-26.84,4.23,15.3,14.16,25.57,21.85,26.84a6.41,6.41,0,0,0,2.24-.13c10.82-1.37,23.36,0,23.36,0l7.31-11a1.46,1.46,0,0,1-.38.2,1,1,0,0,1-.37,0C583.93,292.35,567.73,285.21,567.73,271.77Zm-77.34,18.16c-22.83,0-26.35-17.74-24.91-29.59,2.08-17.12,15.24-26.42,24.91-32.69,14.34-9.3,36.78-19.47,47.23-24v53.59c0,1.8.21,3.2.28,4.84C525.88,273.29,505.54,289.93,490.39,289.93Z" transform="translate(-33.93 -31.48)"></path><path class="cls-1" d="M202.93,130.86A53.29,53.29,0,0,0,163.78,149c-13.05-12.21-31.66-19.91-52.41-19.91-39.47,0-71.46,27.68-71.46,61.82,0,23.55,15.22,44,37.61,54.45-10.15,3.87-30.46,14.13-30.46,34.23,0,26.8,26.25,32.82,50.86,32.82h37.74c27.89,0,41.57,14.22,41.57,35.56s-12.59,43.74-58,43.74S59.64,373.7,59.64,353.47a29.86,29.86,0,0,1,17-27.34l-9.84-9.85s-32.82,2.19-32.82,34.45,40.47,49.79,86.41,49.79,83.14-18.62,83.14-66.19-42.66-53.61-65.09-53.61H101.74c-15.85,0-32.82-3.27-32.82-13.12s13-14.9,22.78-17.25a82.08,82.08,0,0,0,19.67,2.42c39.46,0,71.45-27.67,71.45-61.82a55.57,55.57,0,0,0-11-32.86c2-5.22,5.54-10.82,12-10.82,12.05,0,24.62,22.42,40.49,9.84S218.8,130.86,202.93,130.86ZM114.42,243.69c-21.31,0-39.94-23.61-41.62-52.74S87,138.2,108.32,138.2s39.93,23.62,41.6,52.75S135.71,243.69,114.42,243.69Z" transform="translate(-33.93 -31.48)"></path><path class="cls-1" d="M348.12,298c23.27-1.91,30.32-6.69,30.32-28.36V81.83c0-17.72-2.36-24-17.72-24-5.12,0-8.66.4-13.38.8V52.29c20.86-5.12,41.73-10.63,62.6-17.33l1.58.79V270.86c0,22.83,14.34,25.59,37.19,26.78l22.65,6.3H348.12Z" transform="translate(-33.93 -31.48)"></path><path class="cls-1" d="M339.61,271.68V177.22c0-23.87-5.18-47.75-63.31-47.75s-67,19.73-67,29.58c0,7.79,2.09,17.65,16.09,17.65,6.23,0,11.94-6.23,11.94-15.06,0-13,15.68-27.19,39.45-24.9,27,2.59,32.7,24.39,32.7,46.71v11.81a369.86,369.86,0,0,0-51.39,17.25c-27.25,11.67-54,27-54,57.09,0,21.79,19.21,34.25,42,34.25,20.36,0,43.6-12.39,65.69-26.84,4.73,17.14,15.08,26.93,23.41,26.93h33.64l.33-6.89C349.28,300.51,339.61,285.18,339.61,271.68Zm-77.33,18.16c-22.84,0-26.35-17.74-24.91-29.59,2.07-17.12,15.24-26.42,24.91-32.69,14.34-9.3,36.78-19.47,47.24-24v53.59c0,1.8.2,3.2.27,4.84C297.78,273.2,277.43,289.84,262.28,289.84Z" transform="translate(-33.93 -31.48)"></path><path class="cls-2" d="M1219.33,259.77q0-13.3-11.37-24.21t-39.68-17.09q-29.85-6.34-43.24-16.32t-13.38-29.62q0-17.94,15.16-30.09t40.84-12.14q27.69,0,43.62,13t15.16,33.88l-.31.93H1219q0-16.4-13.85-27.93t-37.51-11.52q-23.52,0-35.58,10.13T1120,172.22q0,13.14,10.21,22.43t40.53,16.24q28,6.5,42.46,17.71t14.46,31.33q0,19.63-16.09,31.86T1168.9,304q-29.24,0-45.87-13.07t-15.54-31.79l.31-.93h6.8q1.25,19.81,17,28.62t37.28,8.82q23.2,0,36.81-10.83T1219.33,259.77Z" transform="translate(-33.93 -31.48)"></path><path class="cls-2" d="M1243,213.83q0-36.81,20.34-60.18t52.83-23.35q32.64,0,53,23.35t20.34,60.18v6.5q0,37-20.34,60.32T1316.45,304q-32.64,0-53.06-23.36T1243,220.33Zm8.35,6.5q0,31.54,17.64,53.44t47.49,21.89q29.38,0,47-22t17.64-53.36v-6.5q0-30.78-17.79-53t-47.18-22.2q-29.55,0-47.18,22.2t-17.64,53Z" transform="translate(-33.93 -31.48)"></path><path class="cls-2" d="M1421.61,300.76h-8.35V59.45h8.35Z" transform="translate(-33.93 -31.48)"></path><path class="cls-2" d="M1570.4,271.37A57.81,57.81,0,0,1,1548,295.43Q1533.44,304,1512.7,304q-25.83,0-40.45-18.33t-14.62-56.85V133.39H1466v95.75q0,34,12.53,50.28t33.87,16.24q25.53,0,39.53-12.45t18.17-32.87v-117h8.51v98.54h.31c0,1.34-.05,2.63-.16,3.86s-.15,2.69-.15,4.34v60.63h-7Z" transform="translate(-33.93 -31.48)"></path><path class="cls-2" d="M1630.71,88.22v45.17h41.14v8.51h-41.14V257.61q0,20.56,7,29.31a22.35,22.35,0,0,0,18.41,8.74q4.17,0,7.42-.31t9-1.08l1.55,7.58a41.76,41.76,0,0,1-8,1.7,86.31,86.31,0,0,1-9.44.46q-16.86,0-25.6-11t-8.74-35.42V141.9h-30.94v-8.51h30.94V88.22Z" transform="translate(-33.93 -31.48)"></path><path class="cls-2" d="M1703.39,80.8H1695V59.45h8.36Zm0,220H1695V133.39h8.36Z" transform="translate(-33.93 -31.48)"></path><path class="cls-2" d="M1726.88,213.83q0-36.81,20.34-60.18T1800,130.3q32.64,0,53,23.35t20.35,60.18v6.5q0,37-20.35,60.32T1800.35,304q-32.64,0-53.06-23.36t-20.41-60.32Zm8.35,6.5q0,31.54,17.63,53.44t47.49,21.89q29.39,0,47-22T1865,220.33v-6.5q0-30.78-17.79-53T1800,138.65q-29.55,0-47.18,22.2t-17.63,53Z" transform="translate(-33.93 -31.48)"></path><path class="cls-2" d="M1902.27,133.39l1.08,33.72q7.74-17.48,22.28-27.15t35.73-9.66q27.38,0,41.07,17.24t13.69,54.69v98.53h-8.35V201.92q0-34.81-12.46-49t-33.79-14.23q-26.31,0-40.22,15.31t-17.79,39.45V300.76h-8.36V215.07h-.46c0-2,0-3.95.08-6s.18-4,.38-6.11V133.39Z" transform="translate(-33.93 -31.48)"></path><path class="cls-2" d="M2152.85,259.77q0-13.3-11.38-24.21t-39.67-17.09q-29.87-6.34-43.24-16.32t-13.38-29.62q0-17.94,15.16-30.09t40.84-12.14q27.68,0,43.62,13T2160,177.17l-.31.93h-7.11q0-16.4-13.85-27.93t-37.51-11.52q-23.52,0-35.58,10.13t-12.07,23.44q0,13.14,10.21,22.43t40.53,16.24q28,6.5,42.46,17.71t14.47,31.33q0,19.63-16.09,31.86T2102.42,304q-29.24,0-45.87-13.07T2041,259.15l.31-.93h6.81q1.23,19.81,17,28.62t37.28,8.82q23.2,0,36.81-10.83T2152.85,259.77Z" transform="translate(-33.93 -31.48)"></path><path class="cls-1" d="M767.07,298.11c-9.85,0-29.82-23.9-29.82-23.9L684.17,206s40.07-50.15,46.78-58.07,13.78-13,19.91-13h15.78v-5.82H689.17v5.82h13.31c7.09,0,13.2,14.58,5.42,23.94S677.17,197,677.17,197s-30.6-37.93-35.1-44.64c-4.72-7.05-4-17.43,4-17.43H667.6v-5.82H566.1v5.82h11.54c8,0,15.06,7.39,18.63,12.16s59.62,76.31,59.62,76.31l-41.78,51.87a67.26,67.26,0,0,1-19.91,17.08,47.93,47.93,0,0,1-15,5.76,44.57,44.57,0,0,1-16.53,0v5.83h86.46v-5.83h-10c-4.93,0-22.7-8.07-10.33-23.36s34.16-42.38,34.16-42.38,25.8,32.31,34.82,44.58,6.16,21.16-8.61,21.16H681v5.83h97.86v-5.83Z" transform="translate(-33.93 -31.48)"></path><path class="cls-1" d="M927.78,350.05c99.86,11.91,179.56-73.48,168.53-168.19C1059,245.08,994,311,927.78,350.05Z" transform="translate(-33.93 -31.48)"></path><path class="cls-1" d="M1093.15,160.41c52.53-106.09-1.67-162.27-110-107.81C910.75,34.19,842.4,70.67,811.4,129.17a167.07,167.07,0,0,1,12.65-13.3c49.56-46.65,154.5-49.73,180.12,60.43.83,3.57,1.39,7.21,2.37,12.42H831.39c.85,16.33,2.15,31.95,5.28,46.77a35.34,35.34,0,0,0,1.12,4.3c13.71,54,53.7,82.45,98,69.08a61.68,61.68,0,0,0,13.25-5.8,53.93,53.93,0,0,1-5.72,4.47c-12.71,8.55-23.07,14.33-35.91,15.65-25.59,2.63-51.84-2.8-72.3-20.14-.36-.3-.7-.61-1-.91a150.35,150.35,0,0,0,55.06,38.2c-74.27,32.26-112.74,5.9-93.41-60.66a130.25,130.25,0,0,1-7.64-17.88c-34.24,91.82,22.17,132.59,118.79,84.81C980.21,308.19,1056.39,230.72,1093.15,160.41Zm-92.08-102c84.87-37.32,122.12,1.54,85.5,85A152.4,152.4,0,0,0,1001.07,58.42Z" transform="translate(-33.93 -31.48)"></path><path class="cls-1" d="M954.29,155.2c1.44-22.8-14.54-46-36.34-53.21-39.4-13.06-82,12.52-83.07,71.2,34.75,0,69.51.34,104.25-.2C949.53,172.82,953.69,164.66,954.29,155.2Z" transform="translate(-33.93 -31.48)"></path><path class="cls-3" d="M2176.82,104.84h-6.33V122h-2.6V104.84h-6.25v-2h15.18Z" transform="translate(-33.93 -31.48)"></path><path class="cls-3" d="M2188.64,118.4h.07l6.13-15.6h3.23V122h-2.59V107.61h-.08l-5.82,14.4h-1.8l-6-14.88-.08,0V122h-2.59V102.8h3.41Z" transform="translate(-33.93 -31.48)"></path></g></g></svg> 