<svg id="visual" viewBox="0 0 200 300" width="200" height="300" xmlns="http://www.w3.org/2000/svg" xmlns:xlink="http://www.w3.org/1999/xlink" version="1.1"><rect width="200" height="300" fill="#00294d"></rect><g><g transform="translate(118 148)"><path d="M18.3 -6.4C21.1 2.7 19 13 12 18.6C5 24.2 -7 25.1 -14.7 19.6C-22.4 14.2 -25.8 2.3 -22.7 -7.2C-19.5 -16.8 -9.8 -24.1 -1 -23.7C7.7 -23.4 15.5 -15.5 18.3 -6.4Z" fill="#1072ba"></path></g><g transform="translate(186 119)"><path d="M14.7 -4.9C16.6 1.4 14.3 8.9 9 12.9C3.7 16.8 -4.6 17.2 -10.1 13.4C-15.6 9.5 -18.4 1.3 -16.3 -5.1C-14.1 -11.6 -7.1 -16.3 -0.4 -16.2C6.3 -16.1 12.7 -11.1 14.7 -4.9Z" fill="#1072ba"></path></g><g transform="translate(72 77)"><path d="M9.1 -3C10.4 0.8 8.9 5.5 5.7 7.8C2.5 10.1 -2.4 10 -5.6 7.7C-8.8 5.4 -10.3 0.8 -9.1 -3C-7.9 -6.8 -4 -9.8 0 -9.8C4 -9.8 7.9 -6.8 9.1 -3Z" fill="#1072ba"></path></g><g transform="translate(78 9)"><path d="M12.8 -4.3C14.3 0.6 11.8 6.7 7.3 10.1C2.7 13.4 -4 14 -8.3 11C-12.6 8 -14.6 1.3 -12.9 -4C-11.1 -9.3 -5.5 -13.1 0 -13.1C5.6 -13.1 11.2 -9.3 12.8 -4.3Z" fill="#1072ba"></path></g><g transform="translate(33 192)"><path d="M10.5 -3.2C12 1 10.3 6.5 6.9 8.9C3.4 11.3 -1.9 10.6 -5.8 7.8C-9.8 5 -12.3 0.1 -11.1 -3.8C-9.9 -7.7 -5 -10.6 -0.2 -10.5C4.6 -10.4 9.1 -7.4 10.5 -3.2Z" fill="#1072ba"></path></g><g transform="translate(88 278)"><path d="M16 -5.3C18.5 2.4 16.7 11.5 11.2 15.4C5.8 19.3 -3.3 18.2 -9.7 13.5C-16 8.8 -19.7 0.6 -17.7 -6.5C-15.6 -13.6 -7.8 -19.7 -0.5 -19.5C6.8 -19.3 13.5 -13 16 -5.3Z" fill="#1072ba"></path></g><g transform="translate(178 278)"><path d="M9.5 -3.4C10.6 0.3 8.6 4.6 5.4 6.8C2.2 9 -2.2 9 -5.3 6.8C-8.5 4.6 -10.5 0.3 -9.4 -3.4C-8.3 -7.1 -4.2 -10.1 0 -10.1C4.2 -10.1 8.4 -7.1 9.5 -3.4Z" fill="#1072ba"></path></g></g></svg>